<?xml version="1.0" encoding="UTF-8"?>
<svg xmlns="http://www.w3.org/2000/svg" viewBox="0 0 1000 1000">
  <defs>
    <linearGradient id="gradient" x1="672" y1="223" x2="759" y2="100" gradientUnits="userSpaceOnUse">
      <stop offset=".5" stop-color="#fff"/>
      <stop offset="1" stop-color="#555"/>
    </linearGradient>
  </defs>
  <polygon id="bg" points="120 10 630 10 880 200 880 990 120 990 120 10" fill="#ddd" stroke="#000" stroke-width="10"/>
  <g id="text" fill="#666">
    <path d="M206.938,132.502h2.578c2.649,0,4.539.51,5.667,1.531s1.692,2.355,1.692,4.001c0,1.611-.556,2.927-1.665,3.948-1.11,1.021-2.99,1.531-5.64,1.531h-3.438l-.806,12.031h1.934c2.649,0,4.539.51,5.667,1.531s1.692,2.355,1.692,4.001c0,1.611-.556,2.927-1.665,3.948-1.11,1.021-2.99,1.531-5.64,1.531h-2.793l-1.289,18.906c-.036.286-.305,1.558-.806,3.813-.358.859-1.003,1.593-1.934,2.202-.932.608-1.916.913-2.954.913-1.469,0-2.731-.546-3.787-1.638-1.057-1.093-1.584-2.462-1.584-4.109,0-.287.035-.967.107-2.041l1.289-18.047h-8.218l-1.289,18.853c-.144,1.897-.287,3.025-.43,3.384-.395,1.074-1.066,1.942-2.014,2.605-.949.662-1.997.994-3.142.994-1.576,0-2.892-.537-3.948-1.611-1.057-1.074-1.584-2.453-1.584-4.136,0-.395.035-1.057.107-1.987l1.235-18.101h-2.686c-2.65,0-4.539-.51-5.667-1.531s-1.692-2.354-1.692-4.001c0-1.611.564-2.927,1.692-3.948s3.016-1.531,5.667-1.531h3.491l.806-12.031h-1.987c-2.65,0-4.539-.51-5.667-1.531s-1.692-2.354-1.692-4.001c0-1.611.564-2.927,1.692-3.948s2.999-1.531,5.613-1.531h2.847l1.289-18.906c.143-1.861.304-3.025.483-3.491.394-1.038,1.065-1.88,2.014-2.524.948-.645,1.996-.967,3.142-.967,1.504,0,2.793.537,3.867,1.611s1.611,2.507,1.611,4.297c0,.43-.036,1.057-.107,1.88l-1.235,18.101h8.164l1.289-18.906c.143-2.578.725-4.386,1.746-5.425,1.021-1.038,2.318-1.558,3.894-1.558,1.539,0,2.847.546,3.921,1.638,1.074,1.093,1.611,2.426,1.611,4.001,0,.358-.019.663-.054.913l-.161,1.235-1.235,18.101ZM195.122,143.512h-8.164l-.806,12.031h8.164l.806-12.031Z"/>
    <path d="M328.056,127.99v43.076h7.412c2.649,0,4.539.51,5.667,1.531s1.692,2.355,1.692,4.001c0,1.611-.564,2.927-1.692,3.948s-3.017,1.531-5.667,1.531h-25.781c-2.65,0-4.539-.51-5.667-1.531s-1.692-2.354-1.692-4.001c0-1.611.564-2.927,1.692-3.948s3.016-1.531,5.667-1.531h7.358v-43.076h-11.924v10.42c0,2.65-.51,4.539-1.531,5.667s-2.355,1.692-4.001,1.692c-1.611,0-2.927-.564-3.948-1.692s-1.531-3.016-1.531-5.667v-21.484l57.041.054v21.431c0,2.65-.51,4.539-1.531,5.667s-2.355,1.692-4.001,1.692c-1.611,0-2.927-.564-3.948-1.692s-1.531-3.016-1.531-5.667v-10.42h-12.085Z"/>
    <path d="M394.174,133.307v37.759h13.213c2.649,0,4.539.51,5.667,1.531s1.692,2.355,1.692,4.001c0,1.611-.564,2.927-1.692,3.948s-3.017,1.531-5.667,1.531h-37.437c-2.65,0-4.539-.51-5.667-1.531s-1.692-2.354-1.692-4.001c0-1.611.564-2.927,1.692-3.948s3.016-1.531,5.667-1.531h13.213v-26.748h-8.862c-2.614,0-4.494-.51-5.64-1.531-1.146-1.021-1.719-2.354-1.719-4.001,0-1.611.564-2.927,1.692-3.948s3.016-1.531,5.667-1.531h19.873ZM392.67,112.414v11.655h-13.105v-11.655h13.105Z"/>
    <path d="M452.021,144.318v22.075c0,2.363.482,3.921,1.449,4.673,1.504,1.182,4.189,1.772,8.057,1.772,5.621,0,10.814-1.199,15.576-3.599,1.826-.931,3.258-1.396,4.297-1.396,1.432,0,2.678.537,3.734,1.611,1.055,1.074,1.584,2.382,1.584,3.921,0,1.433-.574,2.668-1.719,3.706-1.756,1.684-5.219,3.232-10.393,4.646-5.176,1.414-9.535,2.122-13.08,2.122-6.84,0-11.969-1.477-15.387-4.431-3.42-2.954-5.131-6.58-5.131-10.876v-24.224h-3.974c-2.65,0-4.539-.51-5.667-1.531s-1.692-2.354-1.692-4.001c0-1.611.564-2.927,1.692-3.948s3.016-1.531,5.667-1.531h3.974v-9.937c0-2.649.512-4.539,1.531-5.667,1.021-1.128,2.354-1.692,4.002-1.692,1.611,0,2.928.564,3.947,1.692,1.021,1.128,1.531,3.017,1.531,5.667v9.937h20.355c2.65,0,4.539.51,5.668,1.531,1.127,1.021,1.691,2.355,1.691,4.001,0,1.611-.564,2.927-1.691,3.948-1.129,1.021-3.018,1.531-5.668,1.531h-20.355Z"/>
    <path d="M526.249,112.414v58.652h13.213c2.649,0,4.538.51,5.667,1.531,1.127,1.021,1.691,2.355,1.691,4.001,0,1.611-.564,2.927-1.691,3.948-1.129,1.021-3.018,1.531-5.667,1.531h-37.437c-2.65,0-4.539-.51-5.666-1.531-1.129-1.021-1.692-2.354-1.692-4.001,0-1.611.563-2.927,1.692-3.948,1.127-1.021,3.016-1.531,5.666-1.531h13.213v-47.642h-8.862c-2.614,0-4.494-.51-5.64-1.531-1.146-1.021-1.719-2.354-1.719-4.001,0-1.611.564-2.927,1.691-3.948,1.129-1.021,3.017-1.531,5.667-1.531h19.873Z"/>
    <path d="M614.39,163.278h-45.171c1.146,2.865,3.178,5.175,6.096,6.929,2.919,1.755,6.866,2.632,11.844,2.632,4.082,0,9.507-.877,16.274-2.632,2.793-.716,4.727-1.074,5.801-1.074,1.468,0,2.703.52,3.706,1.558,1.002,1.039,1.504,2.346,1.504,3.921,0,1.433-.537,2.65-1.611,3.652-1.433,1.325-4.924,2.587-10.474,3.787-5.551,1.199-10.886,1.799-16.006,1.799-8.809,0-15.854-2.488-21.136-7.466-5.281-4.977-7.922-11.1-7.922-18.369,0-7.734,2.855-14.027,8.566-18.879,5.712-4.852,12.291-7.278,19.739-7.278,4.476,0,8.585.788,12.327,2.363,3.741,1.576,6.525,3.276,8.352,5.103,2.578,2.65,4.708,5.927,6.392,9.829,1.146,2.722,1.719,5.873,1.719,9.453v4.673ZM602.197,152.267c-1.684-3.15-3.886-5.505-6.606-7.063-2.722-1.558-5.962-2.336-9.722-2.336-3.725,0-6.947.779-9.668,2.336-2.722,1.558-4.941,3.913-6.66,7.063h32.656Z"/>
    <path d="M206.938,264.502h2.578c2.649,0,4.539.51,5.667,1.531s1.692,2.355,1.692,4.001c0,1.611-.556,2.927-1.665,3.948-1.11,1.021-2.99,1.531-5.64,1.531h-3.438l-.806,12.031h1.934c2.649,0,4.539.51,5.667,1.531s1.692,2.355,1.692,4.001c0,1.611-.556,2.927-1.665,3.948-1.11,1.021-2.99,1.531-5.64,1.531h-2.793l-1.289,18.906c-.036.286-.305,1.558-.806,3.813-.358.859-1.003,1.593-1.934,2.202-.932.608-1.916.913-2.954.913-1.469,0-2.731-.546-3.787-1.638-1.057-1.093-1.584-2.462-1.584-4.109,0-.287.035-.967.107-2.041l1.289-18.047h-8.218l-1.289,18.853c-.144,1.897-.287,3.025-.43,3.384-.395,1.074-1.066,1.942-2.014,2.605-.949.662-1.997.994-3.142.994-1.576,0-2.892-.537-3.948-1.611-1.057-1.074-1.584-2.453-1.584-4.136,0-.395.035-1.057.107-1.987l1.235-18.101h-2.686c-2.65,0-4.539-.51-5.667-1.531s-1.692-2.354-1.692-4.001c0-1.611.564-2.927,1.692-3.948s3.016-1.531,5.667-1.531h3.491l.806-12.031h-1.987c-2.65,0-4.539-.51-5.667-1.531s-1.692-2.354-1.692-4.001c0-1.611.564-2.927,1.692-3.948s2.999-1.531,5.613-1.531h2.847l1.289-18.906c.143-1.861.304-3.025.483-3.491.394-1.038,1.065-1.88,2.014-2.524.948-.645,1.996-.967,3.142-.967,1.504,0,2.793.537,3.867,1.611s1.611,2.507,1.611,4.297c0,.43-.036,1.057-.107,1.88l-1.235,18.101h8.164l1.289-18.906c.143-2.578.725-4.386,1.746-5.425,1.021-1.038,2.318-1.558,3.894-1.558,1.539,0,2.847.546,3.921,1.638,1.074,1.093,1.611,2.426,1.611,4.001,0,.358-.019.663-.054.913l-.161,1.235-1.235,18.101ZM195.122,275.512h-8.164l-.806,12.031h8.164l.806-12.031Z"/>
    <path d="M272.949,264.502h2.578c2.649,0,4.539.51,5.667,1.531s1.692,2.355,1.692,4.001c0,1.611-.556,2.927-1.665,3.948-1.11,1.021-2.99,1.531-5.64,1.531h-3.438l-.806,12.031h1.934c2.649,0,4.539.51,5.667,1.531s1.692,2.355,1.692,4.001c0,1.611-.556,2.927-1.665,3.948-1.11,1.021-2.99,1.531-5.64,1.531h-2.793l-1.289,18.906c-.036.286-.305,1.558-.806,3.813-.358.859-1.003,1.593-1.934,2.202-.932.608-1.916.913-2.954.913-1.469,0-2.731-.546-3.787-1.638-1.057-1.093-1.584-2.462-1.584-4.109,0-.287.035-.967.107-2.041l1.289-18.047h-8.218l-1.289,18.853c-.144,1.897-.287,3.025-.43,3.384-.395,1.074-1.066,1.942-2.014,2.605-.949.662-1.997.994-3.142.994-1.576,0-2.892-.537-3.948-1.611-1.057-1.074-1.584-2.453-1.584-4.136,0-.395.035-1.057.107-1.987l1.235-18.101h-2.686c-2.65,0-4.539-.51-5.667-1.531s-1.692-2.354-1.692-4.001c0-1.611.564-2.927,1.692-3.948s3.016-1.531,5.667-1.531h3.491l.806-12.031h-1.987c-2.65,0-4.539-.51-5.667-1.531s-1.692-2.354-1.692-4.001c0-1.611.564-2.927,1.692-3.948s2.999-1.531,5.613-1.531h2.847l1.289-18.906c.143-1.861.304-3.025.483-3.491.394-1.038,1.065-1.88,2.014-2.524.948-.645,1.996-.967,3.142-.967,1.504,0,2.793.537,3.867,1.611s1.611,2.507,1.611,4.297c0,.43-.036,1.057-.107,1.88l-1.235,18.101h8.164l1.289-18.906c.143-2.578.725-4.386,1.746-5.425,1.021-1.038,2.318-1.558,3.894-1.558,1.539,0,2.847.546,3.921,1.638,1.074,1.093,1.611,2.426,1.611,4.001,0,.358-.019.663-.054.913l-.161,1.235-1.235,18.101ZM261.132,275.512h-8.164l-.806,12.031h8.164l.806-12.031Z"/>
    <path d="M394.067,259.99v43.076h7.412c2.649,0,4.539.51,5.667,1.531s1.692,2.355,1.692,4.001c0,1.611-.564,2.927-1.692,3.948s-3.017,1.531-5.667,1.531h-25.781c-2.65,0-4.539-.51-5.667-1.531s-1.692-2.354-1.692-4.001c0-1.611.564-2.927,1.692-3.948s3.016-1.531,5.667-1.531h7.358v-43.076h-11.924v10.42c0,2.65-.51,4.539-1.531,5.667s-2.355,1.692-4.001,1.692c-1.611,0-2.927-.564-3.948-1.692s-1.531-3.016-1.531-5.667v-21.484l57.041.054v21.431c0,2.65-.51,4.539-1.531,5.667s-2.355,1.692-4.001,1.692c-1.611,0-2.927-.564-3.948-1.692s-1.531-3.016-1.531-5.667v-10.42h-12.085Z"/>
    <path d="M483.334,290.605c0,4.226-1.172,8.317-3.518,12.273-2.346,3.957-5.836,7.108-10.473,9.453-4.639,2.345-9.48,3.518-14.529,3.518-5.014,0-9.812-1.155-14.395-3.464-4.584-2.31-8.076-5.452-10.474-9.426-2.399-3.975-3.599-8.128-3.599-12.461,0-4.404,1.217-8.728,3.652-12.971,2.435-4.243,5.935-7.582,10.5-10.017,4.566-2.435,9.336-3.652,14.314-3.652,5.012,0,9.838,1.245,14.475,3.733,4.637,2.489,8.137,5.837,10.5,10.044,2.363,4.208,3.545,8.532,3.545,12.971ZM472.324,290.659c0-3.545-1.271-6.803-3.814-9.775-3.473-4.01-8.039-6.016-13.695-6.016-4.979,0-9.131,1.594-12.461,4.78-3.331,3.188-4.996,6.875-4.996,11.064,0,3.438,1.683,6.652,5.048,9.641,3.365,2.99,7.502,4.485,12.408,4.485,4.941,0,9.094-1.495,12.461-4.485,3.365-2.989,5.049-6.221,5.049-9.695Z"/>
    <path d="M496.117,303.066v-43.076c-2.328-.035-4.047-.564-5.156-1.584-1.11-1.021-1.665-2.336-1.665-3.948,0-1.646.563-2.981,1.692-4.001,1.127-1.021,3.016-1.531,5.666-1.531l23.042.054c3.58,0,7.081.663,10.501,1.987,3.419,1.325,6.167,3.008,8.244,5.049,1.575,1.54,3.214,3.652,4.914,6.338,1.701,2.686,2.981,5.354,3.841,8.003.859,2.65,1.289,5.891,1.289,9.722v5.264c0,4.655-.788,8.782-2.363,12.38-1.576,3.599-3.644,6.535-6.204,8.809-2.56,2.274-4.968,3.948-7.224,5.022-3.581,1.684-8.218,2.524-13.911,2.524h-22.129c-2.65,0-4.539-.51-5.666-1.531-1.129-1.021-1.692-2.354-1.692-4.001,0-1.611.563-2.936,1.692-3.975,1.127-1.038,2.837-1.539,5.129-1.504ZM507.128,303.066h11.709c4.368,0,7.662-.626,9.883-1.88,2.9-1.646,5.084-3.741,6.553-6.284,1.468-2.542,2.202-5.836,2.202-9.883v-5.21c0-3.473-.663-6.517-1.987-9.131-2.077-4.082-4.413-6.883-7.009-8.406-2.597-1.521-5.847-2.283-9.749-2.283h-11.602v43.076Z"/>
    <path d="M615.356,290.605c0,4.226-1.173,8.317-3.519,12.273-2.345,3.957-5.836,7.108-10.473,9.453-4.638,2.345-9.48,3.518-14.529,3.518-5.014,0-9.812-1.155-14.395-3.464-4.584-2.31-8.075-5.452-10.474-9.426-2.399-3.975-3.599-8.128-3.599-12.461,0-4.404,1.217-8.728,3.652-12.971,2.435-4.243,5.936-7.582,10.5-10.017,4.566-2.435,9.337-3.652,14.314-3.652,5.013,0,9.838,1.245,14.475,3.733,4.638,2.489,8.138,5.837,10.501,10.044,2.363,4.208,3.545,8.532,3.545,12.971ZM604.346,290.659c0-3.545-1.271-6.803-3.813-9.775-3.474-4.01-8.039-6.016-13.696-6.016-4.978,0-9.131,1.594-12.461,4.78-3.33,3.188-4.995,6.875-4.995,11.064,0,3.438,1.683,6.652,5.049,9.641,3.365,2.99,7.501,4.485,12.407,4.485,4.941,0,9.095-1.495,12.461-4.485,3.365-2.989,5.049-6.221,5.049-9.695Z"/>
    <path d="M213.759,419.866h-45.977v-10.044h45.977v10.044Z"/>
    <path d="M245.476,402.249v32.817h3.975c2.649,0,4.539.511,5.667,1.53,1.128,1.021,1.692,2.355,1.692,4.002,0,1.611-.564,2.928-1.692,3.947-1.128,1.021-3.017,1.531-5.667,1.531h-14.448c-2.65,0-4.539-.51-5.667-1.531-1.128-1.02-1.692-2.354-1.692-4.001,0-1.611.556-2.927,1.665-3.948,1.109-1.02,2.828-1.53,5.156-1.53v-43.076c-1.934-.179-3.393-.77-4.377-1.772-.984-1.002-1.477-2.256-1.477-3.76,0-1.646.564-2.98,1.692-4.001,1.128-1.021,3.016-1.531,5.667-1.531l12.085.054,14.985,33.14,14.717-33.193,12.192.054c2.649,0,4.539.502,5.667,1.504,1.128,1.003,1.692,2.328,1.692,3.975,0,1.504-.502,2.758-1.504,3.76s-2.453,1.594-4.351,1.772v43.076c2.327,0,4.046.52,5.156,1.558,1.109,1.039,1.665,2.363,1.665,3.975s-.564,2.928-1.692,3.947c-1.128,1.021-3.017,1.531-5.667,1.531h-14.502c-2.614,0-4.485-.51-5.613-1.531-1.128-1.02-1.692-2.354-1.692-4.001,0-1.611.564-2.927,1.692-3.948,1.128-1.02,2.999-1.53,5.613-1.53h4.028v-32.817l-12.622,28.359h-9.561l-12.783-28.359Z"/>
    <path d="M338.611,446.077v-2.578c-2.758,1.469-5.801,2.569-9.131,3.303-3.33.734-6.356,1.102-9.077,1.102-5.908,0-10.707-1.566-14.395-4.699-3.688-3.134-5.532-6.598-5.532-10.394,0-4.619,2.354-8.907,7.063-12.864,4.708-3.956,11.216-5.935,19.524-5.935,3.33,0,7.179.358,11.548,1.074v-2.632c0-1.646-.708-2.989-2.122-4.028-1.415-1.038-4.109-1.558-8.083-1.558-3.259,0-7.484.645-12.676,1.934-1.934.466-3.438.698-4.512.698-1.469,0-2.712-.528-3.733-1.585-1.021-1.056-1.531-2.407-1.531-4.055,0-.931.179-1.736.537-2.417.357-.68.859-1.227,1.504-1.638.645-.412,1.987-.904,4.028-1.478,2.721-.752,5.496-1.352,8.325-1.8,2.828-.447,5.389-.671,7.681-.671,6.839,0,12.147,1.478,15.925,4.431,3.777,2.955,5.667,6.992,5.667,12.112v22.666h1.88c2.649,0,4.539.511,5.667,1.53,1.128,1.021,1.692,2.355,1.692,4.002,0,1.611-.564,2.928-1.692,3.947-1.128,1.021-3.017,1.531-5.667,1.531h-12.891ZM338.611,426.365c-4.404-.859-8.469-1.289-12.192-1.289-4.477,0-8.325,1.093-11.548,3.276-2.006,1.396-3.008,2.812-3.008,4.243,0,1.039.483,1.88,1.45,2.524,1.79,1.182,4.243,1.772,7.358,1.772,2.649,0,5.648-.519,8.997-1.558,3.348-1.038,6.329-2.452,8.943-4.243v-4.727Z"/>
    <path d="M392.429,397.307v6.875c4.619-3.33,8.262-5.55,10.93-6.66,2.667-1.109,5.165-1.665,7.493-1.665,3.58,0,7.054,1.325,10.42,3.975,2.291,1.791,3.438,3.617,3.438,5.479,0,1.576-.546,2.909-1.638,4.001s-2.409,1.639-3.948,1.639c-1.361,0-2.793-.68-4.297-2.041-1.504-1.36-2.847-2.041-4.028-2.041-1.54,0-3.84.967-6.902,2.9s-6.884,4.834-11.467,8.701v16.597h15.684c2.649,0,4.539.511,5.667,1.53,1.128,1.021,1.692,2.355,1.692,4.002,0,1.611-.564,2.928-1.692,3.947-1.128,1.021-3.017,1.531-5.667,1.531h-33.247c-2.65,0-4.539-.51-5.667-1.531-1.128-1.02-1.692-2.354-1.692-4.001,0-1.611.564-2.927,1.692-3.948,1.128-1.02,3.016-1.53,5.667-1.53h6.553v-26.748h-3.975c-2.65,0-4.539-.511-5.667-1.53-1.128-1.021-1.692-2.354-1.692-4.002,0-1.611.564-2.928,1.692-3.947,1.128-1.021,3.016-1.531,5.667-1.531h14.985Z"/>
    <path d="M451.672,427.761v18.315h-12.89c-2.65,0-4.539-.51-5.667-1.531-1.128-1.02-1.692-2.354-1.692-4.001,0-1.611.572-2.927,1.719-3.948,1.146-1.02,3.025-1.53,5.64-1.53h1.88v-47.642h-1.88c-2.65,0-4.539-.51-5.667-1.531-1.128-1.02-1.692-2.354-1.692-4.001,0-1.611.564-2.927,1.692-3.948s3.016-1.531,5.667-1.531h12.89v37.114l8.594-6.929c-.895-1.539-1.342-2.793-1.342-3.76,0-1.646.555-2.981,1.664-4.001,1.109-1.021,2.99-1.531,5.641-1.531h12.568c2.648,0,4.537.51,5.666,1.531,1.127,1.02,1.691,2.354,1.691,4.001,0,1.611-.564,2.927-1.691,3.948-1.129,1.02-3.018,1.53-5.666,1.53h-3.062l-13.373,10.85,17.992,15.898h3.223c2.65,0,4.539.511,5.666,1.53,1.129,1.021,1.693,2.355,1.693,4.002,0,1.611-.564,2.928-1.693,3.947-1.127,1.021-3.016,1.531-5.666,1.531h-12.676c-2.65,0-4.539-.51-5.666-1.531-1.129-1.02-1.691-2.354-1.691-4.001,0-1.396.607-2.774,1.826-4.136l-11.656-10.312-2.041,1.665Z"/>
    <path d="M552.005,376.414v58.652h1.88c2.613,0,4.493.511,5.64,1.53,1.146,1.021,1.719,2.355,1.719,4.002,0,1.611-.563,2.928-1.692,3.947-1.127,1.021-3.017,1.531-5.666,1.531h-12.891v-2.686c-2.507,1.469-5.129,2.578-7.869,3.33-2.738.752-5.577,1.128-8.513,1.128-8.271,0-14.932-2.39-19.98-7.171-5.049-4.779-7.573-10.732-7.573-17.858,0-7.447,2.649-13.804,7.949-19.067,5.299-5.264,11.763-7.896,19.39-7.896,2.864,0,5.675.438,8.433,1.315,2.757.878,5.479,2.194,8.164,3.948v-13.696h-1.88c-2.65,0-4.538-.51-5.667-1.531-1.127-1.02-1.691-2.336-1.691-3.947,0-1.646.564-2.981,1.691-4.001,1.129-1.021,3.017-1.531,5.667-1.531h12.891ZM540.994,423.142c0-4.547-1.594-8.396-4.78-11.548-3.188-3.15-7.09-4.727-11.709-4.727-4.584,0-8.469,1.576-11.655,4.727-3.188,3.151-4.78,6.947-4.78,11.387,0,4.047,1.432,7.367,4.297,9.963,2.864,2.597,6.91,3.895,12.139,3.895,5.191,0,9.238-1.298,12.139-3.895,2.9-2.596,4.351-5.862,4.351-9.802Z"/>
    <path d="M621.345,422.605c0,4.226-1.173,8.316-3.519,12.272-2.345,3.957-5.836,7.108-10.473,9.453-4.638,2.346-9.48,3.519-14.529,3.519-5.014,0-9.812-1.155-14.395-3.464-4.584-2.311-8.075-5.452-10.474-9.427-2.399-3.975-3.599-8.128-3.599-12.461,0-4.404,1.217-8.728,3.652-12.972,2.435-4.242,5.936-7.581,10.5-10.017,4.566-2.435,9.337-3.652,14.314-3.652,5.013,0,9.838,1.244,14.475,3.733,4.638,2.488,8.138,5.836,10.501,10.043,2.363,4.208,3.545,8.532,3.545,12.972ZM610.334,422.659c0-3.545-1.271-6.803-3.813-9.775-3.474-4.01-8.039-6.016-13.696-6.016-4.978,0-9.131,1.594-12.461,4.78-3.33,3.188-4.995,6.875-4.995,11.064,0,3.438,1.683,6.651,5.049,9.642,3.365,2.989,7.501,4.484,12.407,4.484,4.941,0,9.095-1.495,12.461-4.484,3.365-2.99,5.049-6.222,5.049-9.695Z"/>
    <path d="M658.836,425.774l-7.627,20.303h-10.366l-9.238-37.759c-2.006-.107-3.519-.671-4.538-1.692-1.021-1.02-1.531-2.3-1.531-3.84,0-1.611.564-2.928,1.691-3.947,1.129-1.021,3.017-1.531,5.667-1.531h10.259c2.649,0,4.539.51,5.666,1.531,1.129,1.02,1.692,2.354,1.692,4.001s-.645,3.044-1.934,4.189c-.967.859-2.865,1.289-5.693,1.289l4.189,17.456,6.821-17.886h9.775l6.875,17.886,4.297-17.456c-2.722,0-4.512-.269-5.371-.806-1.719-1.109-2.578-2.686-2.578-4.727,0-1.611.564-2.928,1.691-3.947,1.129-1.021,3.017-1.531,5.667-1.531h10.366c2.649,0,4.539.51,5.666,1.531,1.129,1.02,1.692,2.354,1.692,4.001,0,1.469-.492,2.712-1.478,3.733-.984,1.02-2.443,1.603-4.377,1.745l-9.023,37.759h-10.205l-8.057-20.303Z"/>
    <path d="M713.62,397.307v3.706c2.005-1.719,4.216-3.008,6.634-3.867,2.416-.859,5.039-1.289,7.868-1.289,6.517,0,11.673,2.023,15.469,6.069,3.008,3.223,4.512,7.448,4.512,12.676v20.464c2.327,0,4.046.511,5.156,1.53,1.109,1.021,1.665,2.355,1.665,4.002,0,1.611-.564,2.928-1.691,3.947-1.129,1.021-3.018,1.531-5.667,1.531h-9.937c-2.65,0-4.539-.51-5.666-1.531-1.129-1.02-1.692-2.354-1.692-4.001,0-1.611.555-2.927,1.665-3.948,1.109-1.02,2.828-1.53,5.156-1.53v-20.786c0-2.398-.645-4.153-1.934-5.264-1.684-1.432-4.208-2.148-7.573-2.148-2.543,0-4.771.492-6.687,1.477-1.916.985-4.343,3.071-7.278,6.258v20.464c2.828,0,4.654.269,5.479.806,1.754,1.074,2.632,2.65,2.632,4.727,0,1.611-.564,2.928-1.691,3.947-1.129,1.021-3.018,1.531-5.667,1.531h-12.515c-2.65,0-4.539-.51-5.666-1.531-1.129-1.02-1.692-2.354-1.692-4.001,0-2.005.859-3.562,2.578-4.673.859-.537,2.703-.806,5.532-.806v-26.748c-2.328,0-4.047-.519-5.156-1.558-1.11-1.038-1.665-2.363-1.665-3.975s.563-2.928,1.692-3.947c1.127-1.021,3.016-1.531,5.666-1.531h10.474Z"/>
    <path d="M213.759,551.866h-45.977v-10.044h45.977v10.044Z"/>
    <path d="M265.242,579.581l-.322.483c3.795,0,7.358.77,10.688,2.31,1.36.645,2.488.967,3.384.967,1.289,0,2.864-.609,4.727-1.826,1.861-1.218,3.33-1.826,4.404-1.826,1.539,0,2.837.528,3.894,1.584,1.056,1.057,1.584,2.372,1.584,3.948,0,1.897-.985,3.545-2.954,4.941-3.903,2.793-7.824,4.189-11.763,4.189-2.006,0-4.028-.395-6.069-1.182-3.295-1.289-5.908-1.934-7.842-1.934-3.115,0-7.86.806-14.233,2.417-1.325.322-2.363.483-3.115.483-1.396,0-2.624-.546-3.679-1.638-1.057-1.093-1.584-2.463-1.584-4.109,0-1.433.716-2.847,2.148-4.243l7.036-6.821c-5.801-2.506-10.537-6.588-14.207-12.246-3.671-5.657-5.505-12.174-5.505-19.551,0-10.67,3.67-19.371,11.011-26.104,5.872-5.406,12.479-8.11,19.819-8.11s14,2.704,19.873,8.11c7.34,6.732,11.011,15.434,11.011,26.104,0,9.167-2.775,16.945-8.325,23.338-5.551,6.391-12.211,9.963-19.98,10.715ZM282.537,545.529c0-6.695-2.023-12.237-6.069-16.623-4.047-4.387-8.647-6.58-13.804-6.58-5.121,0-9.704,2.202-13.75,6.606-4.047,4.404-6.069,9.937-6.069,16.597s2.022,12.184,6.069,16.57c4.046,4.386,8.629,6.579,13.75,6.579,5.156,0,9.757-2.184,13.804-6.553,4.046-4.368,6.069-9.9,6.069-16.597Z"/>
    <path d="M352.092,529.308v37.759c2.327,0,4.046.52,5.156,1.558,1.109,1.039,1.665,2.363,1.665,3.975s-.564,2.928-1.692,3.947c-1.128,1.021-3.017,1.531-5.667,1.531h-10.474v-2.524c-3.151,1.433-6.159,2.507-9.023,3.223-2.865.716-5.586,1.074-8.164,1.074-3.617,0-6.75-.761-9.399-2.282-2.65-1.522-4.745-3.626-6.284-6.312-1.11-1.934-1.665-4.351-1.665-7.251v-23.687h-1.88c-2.65,0-4.539-.511-5.667-1.53-1.128-1.021-1.692-2.354-1.692-4.002,0-1.611.564-2.928,1.692-3.947,1.128-1.021,3.016-1.531,5.667-1.531h12.891v32.764c0,2.328.564,4.037,1.692,5.129,1.128,1.093,2.855,1.639,5.183,1.639,2.22,0,4.61-.438,7.17-1.316,2.56-.877,5.72-2.461,9.48-4.753v-22.451h-3.975c-2.65,0-4.539-.511-5.667-1.53-1.128-1.021-1.692-2.354-1.692-4.002,0-1.611.564-2.928,1.692-3.947,1.128-1.021,3.016-1.531,5.667-1.531h14.985Z"/>
    <path d="M400.164,529.308v37.759h13.213c2.649,0,4.539.511,5.667,1.53,1.128,1.021,1.692,2.355,1.692,4.002,0,1.611-.564,2.928-1.692,3.947-1.128,1.021-3.017,1.531-5.667,1.531h-37.437c-2.65,0-4.539-.51-5.667-1.531-1.128-1.02-1.692-2.354-1.692-4.001,0-1.611.564-2.927,1.692-3.948,1.128-1.02,3.016-1.53,5.667-1.53h13.213v-26.748h-8.862c-2.614,0-4.494-.511-5.64-1.53-1.146-1.021-1.719-2.354-1.719-4.002,0-1.611.564-2.928,1.692-3.947,1.128-1.021,3.016-1.531,5.667-1.531h19.873ZM398.66,508.414v11.655h-13.105v-11.655h13.105Z"/>
    <path d="M477.883,531.295c1.324-1.253,2.686-1.88,4.082-1.88,1.576,0,2.873.564,3.895,1.691,1.02,1.129,1.531,3,1.531,5.613v7.09c0,2.65-.512,4.53-1.531,5.64-1.021,1.11-2.355,1.665-4.002,1.665-1.504,0-2.775-.43-3.812-1.289-.752-.645-1.344-1.961-1.773-3.947-.43-1.988-1.469-3.465-3.115-4.432-2.9-1.719-6.605-2.578-11.117-2.578-5.193,0-9.355,1.522-12.488,4.565-3.133,3.044-4.699,6.894-4.699,11.548,0,4.297,1.504,7.689,4.512,10.178,3.008,2.489,8.002,3.733,14.984,3.733,4.584,0,8.326-.465,11.227-1.396,1.719-.572,3.348-1.549,4.887-2.927,1.539-1.379,2.936-2.068,4.189-2.068,1.504,0,2.803.556,3.895,1.665,1.092,1.11,1.639,2.417,1.639,3.921,0,2.436-1.666,4.745-4.996,6.929-4.941,3.258-12.174,4.888-21.699,4.888-8.559,0-15.219-1.772-19.98-5.317-6.445-4.762-9.667-11.279-9.667-19.551,0-7.842,2.613-14.332,7.841-19.47,5.229-5.139,12.049-7.708,20.465-7.708,3.043,0,5.871.287,8.486.859,2.613.573,5.029,1.433,7.25,2.578Z"/>
    <path d="M517.684,559.762v18.315h-12.891c-2.65,0-4.539-.51-5.666-1.531-1.129-1.02-1.692-2.354-1.692-4.001,0-1.611.572-2.927,1.719-3.948,1.146-1.02,3.025-1.53,5.64-1.53h1.88v-47.642h-1.88c-2.65,0-4.539-.51-5.666-1.531-1.129-1.02-1.692-2.354-1.692-4.001,0-1.611.563-2.927,1.692-3.948,1.127-1.02,3.016-1.53,5.666-1.53h12.891v37.114l8.594-6.929c-.896-1.539-1.343-2.793-1.343-3.76,0-1.646.555-2.981,1.665-4.001,1.109-1.021,2.989-1.531,5.64-1.531h12.568c2.649,0,4.538.51,5.667,1.531,1.127,1.02,1.691,2.354,1.691,4.001,0,1.611-.564,2.927-1.691,3.948-1.129,1.02-3.018,1.53-5.667,1.53h-3.062l-13.374,10.85,17.993,15.898h3.223c2.649,0,4.539.511,5.666,1.53,1.129,1.021,1.692,2.355,1.692,4.002,0,1.611-.563,2.928-1.692,3.947-1.127,1.021-3.017,1.531-5.666,1.531h-12.676c-2.65,0-4.539-.51-5.666-1.531-1.129-1.02-1.692-2.354-1.692-4.001,0-1.396.608-2.774,1.826-4.136l-11.655-10.312-2.041,1.665Z"/>
    <path d="M598.249,508.414v58.652h13.213c2.649,0,4.538.511,5.667,1.53,1.127,1.021,1.691,2.355,1.691,4.002,0,1.611-.564,2.928-1.691,3.947-1.129,1.021-3.018,1.531-5.667,1.531h-37.437c-2.65,0-4.539-.51-5.666-1.531-1.129-1.02-1.692-2.354-1.692-4.001,0-1.611.563-2.927,1.692-3.948,1.127-1.02,3.016-1.53,5.666-1.53h13.213v-47.642h-8.862c-2.614,0-4.494-.51-5.64-1.531-1.146-1.02-1.719-2.354-1.719-4.001,0-1.611.564-2.927,1.691-3.948,1.129-1.02,3.017-1.53,5.667-1.53h19.873Z"/>
    <path d="M687.356,554.606c0,4.226-1.173,8.316-3.519,12.272-2.345,3.957-5.836,7.108-10.473,9.453-4.638,2.346-9.48,3.519-14.529,3.519-5.014,0-9.812-1.155-14.395-3.464-4.584-2.311-8.075-5.452-10.474-9.427-2.399-3.975-3.599-8.128-3.599-12.461,0-4.404,1.217-8.728,3.652-12.972,2.435-4.242,5.936-7.581,10.5-10.017,4.566-2.435,9.337-3.652,14.314-3.652,5.013,0,9.838,1.244,14.475,3.733,4.638,2.488,8.138,5.836,10.501,10.043,2.363,4.208,3.545,8.532,3.545,12.972ZM676.346,554.659c0-3.545-1.271-6.803-3.813-9.775-3.474-4.01-8.039-6.016-13.696-6.016-4.978,0-9.131,1.594-12.461,4.78-3.33,3.188-4.995,6.875-4.995,11.064,0,3.438,1.683,6.651,5.049,9.642,3.365,2.989,7.501,4.484,12.407,4.484,4.941,0,9.095-1.495,12.461-4.484,3.365-2.99,5.049-6.222,5.049-9.695Z"/>
    <path d="M753.366,554.606c0,4.226-1.173,8.316-3.519,12.272-2.345,3.957-5.836,7.108-10.473,9.453-4.638,2.346-9.48,3.519-14.529,3.519-5.014,0-9.812-1.155-14.395-3.464-4.584-2.311-8.075-5.452-10.474-9.427-2.399-3.975-3.599-8.128-3.599-12.461,0-4.404,1.217-8.728,3.652-12.972,2.435-4.242,5.936-7.581,10.5-10.017,4.566-2.435,9.337-3.652,14.314-3.652,5.013,0,9.838,1.244,14.475,3.733,4.638,2.488,8.138,5.836,10.501,10.043,2.363,4.208,3.545,8.532,3.545,12.972ZM742.355,554.659c0-3.545-1.271-6.803-3.813-9.775-3.474-4.01-8.039-6.016-13.696-6.016-4.978,0-9.131,1.594-12.461,4.78-3.33,3.188-4.995,6.875-4.995,11.064,0,3.438,1.683,6.651,5.049,9.642,3.365,2.989,7.501,4.484,12.407,4.484,4.941,0,9.095-1.495,12.461-4.484,3.365-2.99,5.049-6.222,5.049-9.695Z"/>
    <path d="M781.727,559.762v18.315h-12.891c-2.65,0-4.539-.51-5.666-1.531-1.129-1.02-1.692-2.354-1.692-4.001,0-1.611.572-2.927,1.719-3.948,1.146-1.02,3.025-1.53,5.64-1.53h1.88v-47.642h-1.88c-2.65,0-4.539-.51-5.666-1.531-1.129-1.02-1.692-2.354-1.692-4.001,0-1.611.563-2.927,1.692-3.948,1.127-1.02,3.016-1.53,5.666-1.53h12.891v37.114l8.594-6.929c-.896-1.539-1.343-2.793-1.343-3.76,0-1.646.555-2.981,1.665-4.001,1.109-1.021,2.989-1.531,5.64-1.531h12.568c2.649,0,4.538.51,5.667,1.531,1.127,1.02,1.691,2.354,1.691,4.001,0,1.611-.564,2.927-1.691,3.948-1.129,1.02-3.018,1.53-5.667,1.53h-3.062l-13.374,10.85,17.993,15.898h3.223c2.649,0,4.539.511,5.666,1.53,1.129,1.021,1.692,2.355,1.692,4.002,0,1.611-.563,2.928-1.692,3.947-1.127,1.021-3.017,1.531-5.666,1.531h-12.676c-2.65,0-4.539-.51-5.666-1.531-1.129-1.02-1.692-2.354-1.692-4.001,0-1.396.608-2.774,1.826-4.136l-11.655-10.312-2.041,1.665Z"/>
    <path d="M213.759,683.866h-45.977v-10.044h45.977v10.044Z"/>
    <path d="M256.326,687.734v11.333h11.118c2.649,0,4.539.511,5.667,1.53,1.128,1.021,1.692,2.355,1.692,4.002,0,1.611-.564,2.928-1.692,3.947-1.128,1.021-3.017,1.531-5.667,1.531h-23.848c-2.65,0-4.539-.51-5.667-1.531-1.128-1.02-1.692-2.354-1.692-4.001,0-1.611.572-2.927,1.719-3.948,1.146-1.02,3.025-1.53,5.64-1.53h1.719v-43.076h-1.719c-2.65,0-4.539-.511-5.667-1.53-1.128-1.021-1.692-2.354-1.692-4.002s.564-2.98,1.692-4.002c1.128-1.02,3.016-1.53,5.667-1.53l25.352.054c7.447,0,13.347,2.032,17.698,6.096,4.351,4.064,6.526,9.016,6.526,14.852,0,3.223-.734,6.267-2.202,9.131-1.11,2.148-2.963,4.27-5.559,6.365-2.597,2.094-5.246,3.67-7.949,4.727-2.704,1.056-6.276,1.584-10.715,1.584h-10.42ZM256.326,676.723h10.205c4.798,0,8.602-1.083,11.414-3.249,2.811-2.167,4.216-4.771,4.216-7.815,0-2.578-1.137-4.834-3.411-6.768-2.274-1.934-5.524-2.9-9.749-2.9h-12.676v20.732Z"/>
    <path d="M326.418,661.308v6.875c4.619-3.33,8.262-5.55,10.93-6.66,2.667-1.109,5.165-1.665,7.493-1.665,3.58,0,7.054,1.325,10.42,3.975,2.291,1.791,3.438,3.617,3.438,5.479,0,1.576-.546,2.909-1.638,4.001s-2.409,1.639-3.948,1.639c-1.361,0-2.793-.68-4.297-2.041-1.504-1.36-2.847-2.041-4.028-2.041-1.54,0-3.84.967-6.902,2.9s-6.884,4.834-11.467,8.701v16.597h15.684c2.649,0,4.539.511,5.667,1.53,1.128,1.021,1.692,2.355,1.692,4.002,0,1.611-.564,2.928-1.692,3.947-1.128,1.021-3.017,1.531-5.667,1.531h-33.247c-2.65,0-4.539-.51-5.667-1.531-1.128-1.02-1.692-2.354-1.692-4.001,0-1.611.564-2.927,1.692-3.948,1.128-1.02,3.016-1.53,5.667-1.53h6.553v-26.748h-3.975c-2.65,0-4.539-.511-5.667-1.53-1.128-1.021-1.692-2.354-1.692-4.002,0-1.611.564-2.928,1.692-3.947,1.128-1.021,3.016-1.531,5.667-1.531h14.985Z"/>
    <path d="M422.346,691.279h-45.171c1.146,2.865,3.177,5.175,6.096,6.929,2.918,1.755,6.866,2.632,11.843,2.632,4.082,0,9.507-.877,16.274-2.632,2.793-.716,4.727-1.074,5.801-1.074,1.468,0,2.703.52,3.706,1.558,1.002,1.039,1.504,2.346,1.504,3.921,0,1.433-.537,2.65-1.611,3.652-1.433,1.325-4.924,2.587-10.474,3.786-5.551,1.2-10.886,1.8-16.006,1.8-8.809,0-15.854-2.488-21.135-7.466-5.282-4.977-7.922-11.1-7.922-18.369,0-7.734,2.855-14.027,8.567-18.879,5.711-4.853,12.291-7.278,19.739-7.278,4.476,0,8.584.788,12.327,2.363,3.741,1.576,6.526,3.276,8.352,5.103,2.578,2.65,4.708,5.927,6.392,9.829,1.146,2.722,1.719,5.873,1.719,9.453v4.673ZM410.154,680.268c-1.684-3.15-3.886-5.505-6.606-7.063-2.722-1.557-5.962-2.336-9.722-2.336-3.725,0-6.947.779-9.668,2.336-2.722,1.559-4.941,3.913-6.66,7.063h32.656Z"/>
    <path d="M460.803,696.703l11.871-24.385c-2.938,0-4.816-.25-5.641-.752-1.791-1.109-2.686-2.703-2.686-4.78,0-1.611.564-2.928,1.691-3.947,1.129-1.021,3.018-1.531,5.668-1.531h15.092c2.65,0,4.539.51,5.666,1.531,1.129,1.02,1.693,2.354,1.693,4.001,0,1.611-.564,2.927-1.693,3.948-1.127,1.02-3.016,1.53-5.666,1.53h-1.826l-18.422,37.759h-11.494l-18.423-37.759h-1.558c-2.65,0-4.539-.511-5.667-1.53-1.128-1.021-1.692-2.354-1.692-4.002,0-1.611.564-2.928,1.692-3.947,1.128-1.021,3.016-1.531,5.667-1.531h14.77c2.613,0,4.484.51,5.613,1.531,1.127,1.02,1.691,2.354,1.691,4.001,0,2.041-.859,3.599-2.578,4.673-.859.537-2.775.806-5.746.806l11.977,24.385Z"/>
    <path d="M532.186,661.308v37.759h13.213c2.649,0,4.539.511,5.666,1.53,1.129,1.021,1.692,2.355,1.692,4.002,0,1.611-.563,2.928-1.692,3.947-1.127,1.021-3.017,1.531-5.666,1.531h-37.437c-2.65,0-4.538-.51-5.667-1.531-1.127-1.02-1.691-2.354-1.691-4.001,0-1.611.564-2.927,1.691-3.948,1.129-1.02,3.017-1.53,5.667-1.53h13.213v-26.748h-8.862c-2.614,0-4.494-.511-5.64-1.53-1.146-1.021-1.719-2.354-1.719-4.002,0-1.611.563-2.928,1.692-3.947,1.127-1.021,3.016-1.531,5.666-1.531h19.873ZM530.682,640.414v11.655h-13.105v-11.655h13.105Z"/>
    <path d="M620.378,691.279h-45.171c1.146,2.865,3.178,5.175,6.096,6.929,2.919,1.755,6.866,2.632,11.844,2.632,4.082,0,9.507-.877,16.274-2.632,2.793-.716,4.727-1.074,5.801-1.074,1.468,0,2.703.52,3.706,1.558,1.002,1.039,1.504,2.346,1.504,3.921,0,1.433-.537,2.65-1.611,3.652-1.433,1.325-4.924,2.587-10.474,3.786-5.551,1.2-10.886,1.8-16.006,1.8-8.809,0-15.854-2.488-21.136-7.466-5.281-4.977-7.922-11.1-7.922-18.369,0-7.734,2.855-14.027,8.566-18.879,5.712-4.853,12.291-7.278,19.739-7.278,4.476,0,8.585.788,12.327,2.363,3.741,1.576,6.525,3.276,8.352,5.103,2.578,2.65,4.708,5.927,6.392,9.829,1.146,2.722,1.719,5.873,1.719,9.453v4.673ZM608.186,680.268c-1.684-3.15-3.886-5.505-6.606-7.063-2.722-1.557-5.962-2.336-9.722-2.336-3.725,0-6.947.779-9.668,2.336-2.722,1.559-4.941,3.913-6.66,7.063h32.656Z"/>
    <path d="M658.836,689.775l-7.627,20.303h-10.366l-9.238-37.759c-2.006-.107-3.519-.671-4.538-1.692-1.021-1.02-1.531-2.3-1.531-3.84,0-1.611.564-2.928,1.691-3.947,1.129-1.021,3.017-1.531,5.667-1.531h10.259c2.649,0,4.539.51,5.666,1.531,1.129,1.02,1.692,2.354,1.692,4.001s-.645,3.044-1.934,4.189c-.967.859-2.865,1.289-5.693,1.289l4.189,17.456,6.821-17.886h9.775l6.875,17.886,4.297-17.456c-2.722,0-4.512-.269-5.371-.806-1.719-1.109-2.578-2.686-2.578-4.727,0-1.611.564-2.928,1.691-3.947,1.129-1.021,3.017-1.531,5.667-1.531h10.366c2.649,0,4.539.51,5.666,1.531,1.129,1.02,1.692,2.354,1.692,4.001,0,1.469-.492,2.712-1.478,3.733-.984,1.02-2.443,1.603-4.377,1.745l-9.023,37.759h-10.205l-8.057-20.303Z"/>
  </g>
  <g id="ext">
    <path d="M304.289,799.351v8.496c4.883-4.783,9.303-8.079,13.258-9.888,3.955-1.806,8.518-2.71,13.695-2.71,4.395,0,8.738,1.076,13.037,3.223,4.297,2.149,8.497,5.372,12.598,9.668,5.176-4.296,10.424-7.493,15.748-9.595,5.32-2.099,10.766-3.149,16.332-3.149,11.133,0,20.164,2.98,27.1,8.936,9.178,7.814,13.77,18.068,13.77,30.762v67.236c6.248,0,10.889,1.417,13.916,4.248,3.025,2.834,4.541,6.445,4.541,10.84s-1.516,7.983-4.541,10.767c-3.027,2.783-8.154,4.175-15.381,4.175h-28.564v-94.775c0-4.589-.83-7.764-2.49-9.521-1.662-1.758-4.199-2.637-7.617-2.637-3.32,0-6.396.879-9.229,2.637-3.613,2.442-8.008,7.031-13.184,13.77v60.498c6.248,0,10.889,1.417,13.916,4.248,3.025,2.834,4.541,6.445,4.541,10.84s-1.516,7.983-4.541,10.767c-3.027,2.783-8.154,4.175-15.381,4.175h-28.565v-94.775c0-4.49-.855-7.64-2.562-9.448-1.711-1.806-4.273-2.71-7.691-2.71-3.516,0-6.982,1.099-10.4,3.296-3.42,2.197-7.521,6.569-12.305,13.11v60.498c6.248,0,10.914,1.417,13.99,4.248,3.076,2.834,4.613,6.445,4.613,10.84s-1.537,7.983-4.613,10.767-8.229,4.175-15.455,4.175h-27.099c-7.228,0-12.378-1.392-15.454-4.175s-4.614-6.42-4.614-10.913c0-4.395,1.515-7.983,4.541-10.767s7.713-4.175,14.062-4.175v-72.949c-6.349,0-11.037-1.414-14.062-4.248-3.026-2.831-4.541-6.445-4.541-10.84s1.538-7.983,4.614-10.767,8.226-4.175,15.454-4.175h28.564Z"/>
    <path d="M599.602,742.368v159.961h5.127c7.127,0,12.254,1.392,15.381,4.175,3.124,2.783,4.688,6.423,4.688,10.913,0,4.395-1.538,7.983-4.614,10.767s-8.229,4.175-15.454,4.175h-35.156v-7.324c-6.837,4.006-13.989,7.031-21.46,9.082s-15.212,3.076-23.218,3.076c-22.559,0-40.723-6.519-54.492-19.556s-20.654-29.271-20.654-48.706c0-20.311,7.226-37.646,21.68-52.002,14.451-14.355,32.08-21.533,52.881-21.533,7.812,0,15.477,1.197,22.998,3.589,7.519,2.395,14.941,5.983,22.266,10.767v-37.354h-5.127c-7.229,0-12.378-1.392-15.454-4.175s-4.614-6.372-4.614-10.767c0-4.49,1.538-8.13,4.614-10.913s8.226-4.175,15.454-4.175h35.156ZM569.573,869.81c0-12.4-4.347-22.899-13.037-31.494-8.693-8.592-19.336-12.891-31.934-12.891-12.502,0-23.097,4.299-31.787,12.891-8.693,8.595-13.037,18.947-13.037,31.055,0,11.037,3.904,20.094,11.719,27.173,7.812,7.082,18.846,10.62,33.105,10.62,14.158,0,25.195-3.538,33.105-10.62,7.91-7.079,11.865-15.989,11.865-26.733Z"/>
  </g>
  <polygon id="edge" points="630 10 752 105 880 200 680 228 630 10" fill="url(#gradient)" stroke="#000" stroke-width="4"/>
  <g id="loupe" fill="#215c2e">
    <path id="handle" d="M863,847l-66,58c-11,9-27,8-35-4l-179-241,65-57,217,208c10,10,10,26-1,35l-1,1Z"/>
    <path d="M454,142c-165.685,0-300,134.315-300,300s134.315,300,300,300,300-134.315,300-300-134.315-300-300-300ZM454,692c-138.071,0-250-111.929-250-250s111.929-250,250-250,250,111.929,250,250-111.929,250-250,250Z"/>
  </g>
</svg>